<?xml version="1.0" encoding="UTF-8"?>
<svg width="158px" height="40px" viewBox="0 0 158 40" version="1.1" xmlns="http://www.w3.org/2000/svg" xmlns:xlink="http://www.w3.org/1999/xlink">
    <!-- Generator: Sketch 43.2 (39069) - http://www.bohemiancoding.com/sketch -->
    <title>Untitled</title>
    <desc>Created with Sketch.</desc>
    <defs></defs>
    <g id="Page-1" stroke="none" stroke-width="1" fill="none" fill-rule="evenodd">
        <g id="google_podcasts_badge_svg">
            <rect id="Rectangle" stroke="#9AA0A6" stroke-width="0.5" fill="#FFFFFF" fill-rule="nonzero" x="0.294117647" y="0.294117647" width="157.058824" height="39.4117647" rx="8"></rect>
            <g id="Podcast_icon_final" transform="translate(7.058824, 7.058824)" fill-rule="nonzero">
                <g id="_logo_Podcasts_192px">
                    <polygon id="Shape" fill="#FAB908" points="11.3235294 8.23529412 11.3235294 12.1573529 11.3235294 13.725 11.3235294 17.6470588 14.5588235 17.6470588 14.5588235 13.725 14.5588235 12.1573529 14.5588235 8.23529412"></polygon>
                    <circle id="Oval" fill="#0066D9" cx="1.61764706" cy="12.0588235" r="1.61764706"></circle>
                    <circle id="Oval" fill="#0066D9" cx="1.61764706" cy="13.8235294" r="1.61764706"></circle>
                    <rect id="Rectangle-path" fill="#0066D9" x="0" y="12.0588235" width="3.23529412" height="1.76470588"></rect>
                    <circle id="Oval" fill="#4285F4" cx="24.2647059" cy="13.8235294" r="1.61764706"></circle>
                    <circle id="Oval" fill="#4285F4" cx="24.2647059" cy="12.0588235" r="1.61764706"></circle>
                    <rect id="Rectangle-path" fill="#4285F4" transform="translate(24.264706, 12.941176) rotate(180.000000) translate(-24.264706, -12.941176) " x="22.6470588" y="12.0588235" width="3.23529412" height="1.76470588"></rect>
                    <circle id="Oval" fill="#EA4335" cx="7.20588235" cy="17.3529412" r="1.61764706"></circle>
                    <circle id="Oval" fill="#EA4335" cx="7.20588235" cy="19.1176471" r="1.61764706"></circle>
                    <rect id="Rectangle-path" fill="#EA4335" x="5.58823529" y="17.3529412" width="3.23529412" height="1.76470588"></rect>
                    <circle id="Oval" fill="#EA4335" cx="7.20588235" cy="6.76470588" r="1.61764706"></circle>
                    <circle id="Oval" fill="#EA4335" cx="7.20588235" cy="12.5" r="1.61764706"></circle>
                    <rect id="Rectangle-path" fill="#EA4335" x="5.58823529" y="6.76470588" width="3.23529412" height="5.77205882"></rect>
                    <circle id="Oval" fill="#34A853" cx="18.6764706" cy="8.52941176" r="1.61764706"></circle>
                    <circle id="Oval" fill="#34A853" cx="18.6764706" cy="6.76470588" r="1.61764706"></circle>
                    <rect id="Rectangle-path" fill="#34A853" transform="translate(18.676471, 7.647059) rotate(180.000000) translate(-18.676471, -7.647059) " x="17.0588235" y="6.76470588" width="3.23529412" height="1.76470588"></rect>
                    <circle id="Oval" fill="#FAB908" cx="12.9411765" cy="3.38235294" r="1.61764706"></circle>
                    <circle id="Oval" fill="#FAB908" cx="12.9411765" cy="1.61764706" r="1.61764706"></circle>
                    <rect id="Rectangle-path" fill="#FAB908" transform="translate(12.941176, 2.500000) rotate(180.000000) translate(-12.941176, -2.500000) " x="11.3235294" y="1.61764706" width="3.23529412" height="1.76470588"></rect>
                    <circle id="Oval" fill="#FAB908" cx="12.9411765" cy="24.2647059" r="1.61764706"></circle>
                    <circle id="Oval" fill="#FAB908" cx="12.9411765" cy="22.5" r="1.61764706"></circle>
                    <rect id="Rectangle-path" fill="#FAB908" transform="translate(12.941176, 23.382353) rotate(180.000000) translate(-12.941176, -23.382353) " x="11.3235294" y="22.5" width="3.23529412" height="1.76470588"></rect>
                    <circle id="Oval" fill="#34A853" cx="18.6764706" cy="19.1176471" r="1.61764706"></circle>
                    <circle id="Oval" fill="#34A853" cx="18.6764706" cy="13.3823529" r="1.61764706"></circle>
                    <rect id="Rectangle-path" fill="#34A853" transform="translate(18.676471, 16.250000) rotate(180.000000) translate(-18.676471, -16.250000) " x="17.0588235" y="13.3823529" width="3.23529412" height="5.73529412"></rect>
                    <circle id="Oval" fill="#FAB908" cx="12.9411765" cy="8.23529412" r="1.61764706"></circle>
                    <circle id="Oval" fill="#FAB908" cx="12.9411765" cy="17.6470588" r="1.61764706"></circle>
                </g>
            </g>
            <g id="Group" transform="translate(41.176471, 18.823529)">
                <polygon id="Rectangle-path" points="0 0 107.058824 0 107.058824 16.4705882 0 16.4705882"></polygon>
                <path d="M52.8422222,12.3529412 L51.4952941,12.3529412 L51.4952941,1.8703268 L55.0675816,1.8703268 C55.9557779,1.8703268 56.7243976,2.16557439 57.373464,2.75607844 C58.0225305,3.34658247 58.3470588,4.09080161 58.3470588,4.98875816 C58.3470588,5.88671473 58.0225305,6.63093387 57.373464,7.22143791 C56.7243976,7.81194195 55.9557779,8.10718954 55.0675816,8.10718954 L52.8422222,8.10718954 L52.8422222,12.3529412 Z M52.8422222,6.81882353 L55.0968627,6.81882353 C55.6629658,6.81882353 56.1168174,6.62849864 56.4584314,6.24784314 C56.8000453,5.86718764 56.9708496,5.44749685 56.9708496,4.98875816 C56.9708496,4.53001949 56.8000453,4.11032871 56.4584314,3.7296732 C56.1168174,3.34901771 55.6629658,3.15869281 55.0968627,3.15869281 L52.8422222,3.15869281 L52.8422222,6.81882353 Z M59.4638562,6.04287581 C60.1568445,5.31084601 61.0401472,4.9448366 62.1137908,4.9448366 C63.1874346,4.9448366 64.0707373,5.30840595 64.7637255,6.03555555 C65.4567136,6.76270516 65.8032026,7.67284856 65.8032026,8.76601307 C65.8032026,9.85917758 65.4567136,10.769321 64.7637255,11.4964706 C64.0707373,12.2236202 63.1874346,12.5871895 62.1137908,12.5871895 C61.0401472,12.5871895 60.1568445,12.2236202 59.4638562,11.4964706 C58.770868,10.769321 58.4243791,9.85917758 58.4243791,8.76601307 C58.4243791,7.67284856 58.770868,6.76514522 59.4638562,6.04287581 Z M60.4594118,10.6546405 C60.9279108,11.1231396 61.4793651,11.3573856 62.1137908,11.3573856 C62.7482167,11.3573856 63.2972308,11.1206995 63.7608496,10.6473203 C64.2244686,10.173941 64.4562745,9.54684486 64.4562745,8.76601307 C64.4562745,7.98518128 64.2244686,7.35808515 63.7608496,6.88470588 C63.2972308,6.41132661 62.7482167,6.17464052 62.1137908,6.17464052 C61.4793651,6.17464052 60.9303509,6.41132661 60.466732,6.88470588 C60.0031132,7.35808515 59.7713072,7.98518128 59.7713072,8.76601307 C59.7713072,9.54684486 60.0006731,10.176381 60.4594118,10.6546405 Z M69.8627451,12.5871895 C68.9355073,12.5871895 68.1351668,12.2211801 67.4616993,11.4891503 C66.7882319,10.7571205 66.4515033,9.84941718 66.4515033,8.76601307 C66.4515033,7.68260896 66.7882319,6.77490562 67.4616993,6.04287581 C68.1351668,5.31084601 68.9355073,4.9448366 69.8627451,4.9448366 C70.4093273,4.9448366 70.89978,5.06195961 71.3341176,5.29620915 C71.7684553,5.53045868 72.0929836,5.82326621 72.3077125,6.17464052 L72.3662745,6.17464052 L72.3077125,5.17908496 L72.3077125,1.8703268 L73.6546405,1.8703268 L73.6546405,12.3529412 L72.3662745,12.3529412 L72.3662745,11.3573856 L72.3077125,11.3573856 C72.0929836,11.7087599 71.7684553,12.0015674 71.3341176,12.2358169 C70.89978,12.4700666 70.4093273,12.5871895 69.8627451,12.5871895 Z M70.0823529,11.3573856 C70.7167788,11.3573856 71.2560326,11.1231396 71.7001307,10.6546405 C72.1442288,10.1861414 72.3662745,9.55660526 72.3662745,8.76601307 C72.3662745,7.97542088 72.1442288,7.34588469 71.7001307,6.87738562 C71.2560326,6.40888654 70.7167788,6.17464052 70.0823529,6.17464052 C69.4576875,6.17464052 68.9208736,6.41132661 68.4718954,6.88470588 C68.0229172,7.35808515 67.7984314,7.98518128 67.7984314,8.76601307 C67.7984314,9.54684486 68.0229172,10.173941 68.4718954,10.6473203 C68.9208736,11.1206995 69.4576875,11.3573856 70.0823529,11.3573856 Z M78.3290849,12.5871895 C77.2554413,12.5871895 76.3721386,12.2236202 75.6791504,11.4964706 C74.9861621,10.769321 74.6396732,9.85917758 74.6396732,8.76601307 C74.6396732,7.67284856 74.9861621,6.76270516 75.6791504,6.03555555 C76.3721386,5.30840595 77.2554413,4.9448366 78.3290849,4.9448366 C79.1294375,4.9448366 79.7931346,5.14004162 80.3201961,5.53045752 C80.8472575,5.92087341 81.2327874,6.41376608 81.4767974,7.00915033 L80.2469934,7.52156862 C79.8760984,6.62361207 79.2075212,6.17464052 78.2412419,6.17464052 C77.6458576,6.17464052 77.1212441,6.4186468 76.6673856,6.90666667 C76.2135272,7.39468654 75.9866013,8.01446247 75.9866013,8.76601307 C75.9866013,9.51756367 76.2135272,10.1373396 76.6673856,10.6253595 C77.1212441,11.1133793 77.6458576,11.3573856 78.2412419,11.3573856 C79.2465627,11.3573856 79.9395406,10.9084141 80.3201961,10.0104575 L81.5207189,10.5228758 C81.2767091,11.1084997 80.8838589,11.5989523 80.3421568,11.9942484 C79.8004548,12.3895445 79.1294375,12.5871895 78.3290849,12.5871895 Z M84.7164706,12.5871895 C83.9551596,12.5871895 83.3183032,12.3675839 82.8058824,11.928366 C82.2934615,11.4891481 82.0372549,10.9084132 82.0372549,10.1861438 C82.0372549,9.405312 82.3398227,8.79285625 82.9449673,8.34875816 C83.550112,7.90466009 84.2967712,7.68261438 85.1849673,7.68261438 C85.9755595,7.68261438 86.6246162,7.82901814 87.1321568,8.12183007 L87.1321568,7.91686274 C87.1321568,7.38980128 86.9515922,6.96767044 86.5904575,6.65045752 C86.2293228,6.3332446 85.7852314,6.17464052 85.2581699,6.17464052 C84.867754,6.17464052 84.5139449,6.26736291 84.196732,6.45281046 C83.8795191,6.63825801 83.6623535,6.89202453 83.5452287,7.21411765 L82.3154248,6.68705882 C82.4813516,6.25760134 82.80832,5.85987111 83.2963399,5.49385621 C83.7843598,5.12784131 84.4285364,4.9448366 85.2288889,4.9448366 C86.1463662,4.9448366 86.9076658,5.21324351 87.5128105,5.75006536 C88.1179551,6.28688721 88.4205228,7.04330667 88.4205228,8.0193464 L88.4205228,12.3529412 L87.1321568,12.3529412 L87.1321568,11.3573856 L87.0735948,11.3573856 C86.5367729,12.1772591 85.7510727,12.5871895 84.7164706,12.5871895 Z M84.9360785,11.3573856 C85.4924211,11.3573856 85.9975141,11.1499803 86.4513726,10.7351634 C86.9052311,10.3203465 87.1321568,9.82989389 87.1321568,9.26379085 C86.7515014,8.95145813 86.1805267,8.79529412 85.4192156,8.79529412 C84.7652691,8.79529412 84.2723764,8.93681775 83.9405228,9.21986928 C83.6086694,9.5029208 83.4427451,9.83476934 83.4427451,10.2154248 C83.4427451,10.5667991 83.5940289,10.8449663 83.8966013,11.0499346 C84.1991736,11.254903 84.5456626,11.3573856 84.9360785,11.3573856 Z M92.3629412,12.5871895 C91.5625886,12.5871895 90.9013315,12.3919845 90.3791504,12.0015686 C89.8569691,11.6111527 89.4738792,11.1231402 89.2298693,10.5375163 L90.4303921,10.0397386 C90.8110476,10.9376951 91.4601044,11.3866667 92.3775816,11.3866667 C92.7972788,11.3866667 93.1413276,11.2939443 93.4097386,11.1084967 C93.6781495,10.9230492 93.8123529,10.6790429 93.8123529,10.3764706 C93.8123529,9.90797152 93.4853846,9.59076335 92.8314379,9.4248366 L91.3820261,9.07346405 C90.9232874,8.95633928 90.4889564,8.73429358 90.0790196,8.40732026 C89.6690829,8.08034695 89.4641176,7.63869559 89.4641176,7.08235294 C89.4641176,6.44792711 89.7447248,5.93307387 90.3059478,5.53777778 C90.8671706,5.14248168 91.5333076,4.9448366 92.3043791,4.9448366 C92.9388049,4.9448366 93.5048995,5.08880031 94.0026798,5.37673202 C94.50046,5.66466375 94.8567092,6.07703435 95.0714379,6.61385621 L93.9001961,7.09699346 C93.6366653,6.46256764 93.0900913,6.14535948 92.2604575,6.14535948 C91.8602812,6.14535948 91.5235526,6.22832161 91.2502614,6.39424836 C90.9769704,6.56017512 90.8403268,6.78466089 90.8403268,7.06771242 C90.8403268,7.47764911 91.1575349,7.75581626 91.7919608,7.90222222 L93.2120915,8.23895425 C93.8855589,8.39512061 94.3833318,8.66352751 94.7054248,9.04418301 C95.027518,9.42483851 95.1885621,9.85428955 95.1885621,10.332549 C95.1885621,10.9767352 94.9250353,11.513549 94.3979739,11.9430066 C93.8709124,12.372464 93.1925749,12.5871895 92.3629412,12.5871895 Z M99.2188235,12.4700654 C98.4672729,12.4700654 97.8938582,12.2699802 97.4985621,11.8698039 C97.103266,11.4696276 96.9056209,10.9035331 96.9056209,10.1715033 L96.9056209,6.40888889 L95.646536,6.40888889 L95.646536,5.17908496 L96.9056209,5.17908496 L96.9056209,2.98300654 L98.2525491,2.98300654 L98.2525491,5.17908496 L100.009412,5.17908496 L100.009412,6.40888889 L98.2525491,6.40888889 L98.2525491,10.0690196 C98.2525491,10.8498514 98.5746373,11.2402614 99.2188235,11.2402614 C99.4628334,11.2402614 99.6677987,11.2012204 99.8337255,11.1231373 L100.302222,12.2797386 C100.00941,12.4066238 99.6482811,12.4700654 99.2188235,12.4700654 Z M103.93719,12.5871895 C103.136837,12.5871895 102.47558,12.3919845 101.953399,12.0015686 C101.431217,11.6111527 101.048128,11.1231402 100.804118,10.5375163 L102.00464,10.0397386 C102.385296,10.9376951 103.034353,11.3866667 103.95183,11.3866667 C104.371527,11.3866667 104.715576,11.2939443 104.983987,11.1084967 C105.252398,10.9230492 105.386601,10.6790429 105.386601,10.3764706 C105.386601,9.90797152 105.059633,9.59076335 104.405686,9.4248366 L102.956274,9.07346405 C102.497536,8.95633928 102.063205,8.73429358 101.653268,8.40732026 C101.243331,8.08034695 101.038366,7.63869559 101.038366,7.08235294 C101.038366,6.44792711 101.318973,5.93307387 101.880196,5.53777778 C102.441419,5.14248168 103.107556,4.9448366 103.878627,4.9448366 C104.513053,4.9448366 105.079148,5.08880031 105.576928,5.37673202 C106.074708,5.66466375 106.430958,6.07703435 106.645686,6.61385621 L105.474444,7.09699346 C105.210914,6.46256764 104.66434,6.14535948 103.834706,6.14535948 C103.43453,6.14535948 103.097801,6.22832161 102.82451,6.39424836 C102.551219,6.56017512 102.414575,6.78466089 102.414575,7.06771242 C102.414575,7.47764911 102.731783,7.75581626 103.366209,7.90222222 L104.78634,8.23895425 C105.459807,8.39512061 105.95758,8.66352751 106.279673,9.04418301 C106.601766,9.42483851 106.76281,9.85428955 106.76281,10.332549 C106.76281,10.9767352 106.499284,11.513549 105.972222,11.9430066 C105.445161,12.372464 104.766823,12.5871895 103.93719,12.5871895 Z" id="Podcasts" fill="#3C4043" fill-rule="nonzero"></path>
                <path d="M0.343137255,6.57679739 C0.343137255,3.25980392 3.12254902,0.571895425 6.43954248,0.571895425 C8.26960785,0.571895425 9.57352941,1.29248366 10.5571895,2.23039215 L9.39052287,3.38562092 C8.69281046,2.72222222 7.74346405,2.20751634 6.43954248,2.20751634 C4.02614379,2.20751634 2.13888889,4.15196079 2.13888889,6.56535948 C2.13888889,8.97875816 4.02614379,10.9232026 6.43954248,10.9232026 C8.00653595,10.9232026 8.89869281,10.2941176 9.47058824,9.72222222 C9.93954248,9.25326798 10.248366,8.57843138 10.3627451,7.66339869 L6.43954248,7.66339869 L6.43954248,6.02777778 L11.9640522,6.02777778 C12.0212419,6.3251634 12.0555555,6.66830066 12.0555555,7.05718954 C12.0555555,8.29248366 11.7238562,9.81372549 10.6372549,10.8888889 C9.57352941,11.9869281 8.22385621,12.5702614 6.43954248,12.5702614 C3.12254902,12.5702614 0.343137255,9.88235294 0.343137255,6.57679739 Z M16.4591504,4.91830066 C18.5980392,4.91830066 20.3366013,6.54248366 20.3366013,8.78431373 C20.3366013,11.0147059 18.5980392,12.6503268 16.4591504,12.6503268 C14.3202614,12.6503268 12.5816993,11.0147059 12.5816993,8.78431373 C12.5816993,6.54248366 14.3202614,4.91830066 16.4591504,4.91830066 Z M16.4591504,11.1176471 C17.6258169,11.1176471 18.6437908,10.1568627 18.6437908,8.77287581 C18.6437908,7.37745098 17.6258169,6.42810458 16.4591504,6.42810458 C15.2810458,6.42810458 14.2745098,7.37745098 14.2745098,8.77287581 C14.2745098,10.1568627 15.2924836,11.1176471 16.4591504,11.1176471 Z M24.9232026,4.91830066 C27.0620915,4.91830066 28.8006536,6.54248366 28.8006536,8.78431373 C28.8006536,11.0147059 27.0620915,12.6503268 24.9232026,12.6503268 C22.7843138,12.6503268 21.0457516,11.0147059 21.0457516,8.78431373 C21.0457516,6.54248366 22.7843138,4.91830066 24.9232026,4.91830066 Z M24.9232026,11.1176471 C26.0898693,11.1176471 27.1078432,10.1568627 27.1078432,8.77287581 C27.1078432,7.37745098 26.1013072,6.42810458 24.9232026,6.42810458 C23.745098,6.42810458 22.7385621,7.37745098 22.7385621,8.77287581 C22.7385621,10.1568627 23.756536,11.1176471 24.9232026,11.1176471 Z M35.3088235,5.04411765 L36.9330066,5.04411765 L36.9330066,11.9869281 C36.9330066,14.8464052 35.251634,16.0130719 33.2614379,16.0130719 C31.3856209,16.0130719 30.253268,14.754902 29.8300654,13.7254902 L31.3055555,13.1078432 C31.5686274,13.7369281 32.2091504,14.4803921 33.25,14.4803921 C34.5196079,14.4803921 35.3088235,13.6911765 35.3088235,12.2156862 L35.3088235,11.6552288 L35.251634,11.6552288 C34.8741831,12.1241831 34.1421568,12.5359478 33.2156862,12.5359478 C31.2826798,12.5359478 29.5098039,10.8431373 29.5098039,8.68137255 C29.5098039,6.49673202 31.2826798,4.80392156 33.2156862,4.80392156 C34.1421568,4.80392156 34.8741831,5.21568627 35.251634,5.67320261 L35.3088235,5.67320261 L35.3088235,5.04411765 Z M33.3643791,11.0147059 C34.5196079,11.0147059 35.4346405,10.0424837 35.4232026,8.68137255 C35.4232026,7.32026144 34.5196079,6.3251634 33.3643791,6.3251634 C32.1977125,6.3251634 31.2140522,7.32026144 31.2140522,8.68137255 C31.2140522,10.0310458 32.1977125,11.0147059 33.3643791,11.0147059 Z M38.0882353,12.3872549 L38.0882353,1.02941176 L39.7810458,1.02941176 L39.7810458,12.3872549 L38.0882353,12.3872549 Z M44.4362745,11.1176471 C45.3055555,11.1176471 45.9003268,10.6944444 46.3464052,10.0539216 L47.6617647,10.9346405 C47.2271242,11.5637255 46.2091504,12.6503268 44.4362745,12.6503268 C42.2401961,12.6503268 40.6045752,10.9460784 40.6045752,8.78431373 C40.6045752,6.48529412 42.2630719,4.91830066 44.253268,4.91830066 C46.254902,4.91830066 47.2385621,6.50816993 47.5588235,7.37745098 L47.7303921,7.81209151 L42.5604575,9.95098039 C42.9607844,10.7173203 43.5669934,11.1176471 44.4362745,11.1176471 Z M44.3104575,6.40522875 C43.4411765,6.40522875 42.2401961,7.17156862 42.2859478,8.65849673 L45.7401961,7.22875816 C45.5571895,6.73692811 44.9852941,6.40522875 44.3104575,6.40522875 Z" id="Combined-Shape" fill="#3C4043" fill-rule="nonzero"></path>
            </g>
            <path d="M43.0480239,14.4824219 L46.6153493,14.4824219 L46.6153493,15.2941176 L42.0502068,15.2941176 L42.0502068,7.76654412 L43.0480239,7.76654412 L43.0480239,14.4824219 Z M48.9015395,15.2941176 L47.9450827,15.2941176 L47.9450827,9.70013787 L48.9015395,9.70013787 L48.9015395,15.2941176 Z M47.8675321,8.21633732 C47.8675321,8.06123544 47.9149236,7.93026248 48.0097082,7.82341452 C48.1044927,7.71656656 48.2449439,7.66314339 48.4310662,7.66314339 C48.6171885,7.66314339 48.7585014,7.71656656 48.8550092,7.82341452 C48.9515171,7.93026248 48.9997702,8.06123544 48.9997702,8.21633732 C48.9997702,8.3714392 48.9515171,8.50068882 48.8550092,8.60409007 C48.7585014,8.70749133 48.6171885,8.75919118 48.4310662,8.75919118 C48.2449439,8.75919118 48.1044927,8.70749133 48.0097082,8.60409007 C47.9149236,8.50068882 47.8675321,8.3714392 47.8675321,8.21633732 Z M53.9536994,13.8103171 C53.9536994,13.551814 53.8563314,13.3510462 53.6615924,13.2080078 C53.4668533,13.0649694 53.1273576,12.9417514 52.6430952,12.8383502 C52.1588326,12.7349489 51.7745304,12.6108693 51.4901769,12.4661075 C51.2058235,12.3213458 50.9955774,12.1490129 50.8594325,11.9491039 C50.7232874,11.7491948 50.655216,11.5113755 50.655216,11.2356388 C50.655216,10.7772266 50.8490905,10.3894777 51.2368452,10.0723805 C51.6245999,9.75528334 52.1200567,9.59673713 52.7232307,9.59673713 C53.3574251,9.59673713 53.8718386,9.76045333 54.2664867,10.0878906 C54.6611348,10.4153279 54.8584559,10.8340967 54.8584559,11.3442096 L53.8968291,11.3442096 C53.8968291,11.0822597 53.7856744,10.8565037 53.5633616,10.6669347 C53.3410489,10.4773658 53.0610081,10.3825827 52.7232307,10.3825827 C52.3751132,10.3825827 52.1028273,10.4584092 51.9063649,10.6100643 C51.7099025,10.7617195 51.6116728,10.9599023 51.6116728,11.2046186 C51.6116728,11.435548 51.7030092,11.6096042 51.8856847,11.7267923 C52.0683602,11.8439804 52.3983776,11.9559967 52.8757468,12.0628447 C53.3531159,12.1696926 53.7400031,12.2972189 54.03642,12.4454274 C54.3328369,12.5936359 54.5525613,12.7720004 54.6955998,12.9805262 C54.8386381,13.189052 54.9101562,13.4432429 54.9101562,13.7431066 C54.9101562,14.2428793 54.7102501,14.6435532 54.310432,14.9451401 C53.9106138,15.2467272 53.391892,15.3975184 52.7542509,15.3975184 C52.3061788,15.3975184 51.9098133,15.3182453 51.5651425,15.1596967 C51.2204716,15.0011481 50.9507707,14.7797004 50.7560318,14.4953469 C50.5612927,14.2109935 50.4639246,13.9033794 50.4639246,13.5724954 L51.4203814,13.5724954 C51.4376149,13.8930393 51.5660029,14.1472302 51.8055492,14.3350759 C52.0450954,14.5229214 52.3613261,14.6168428 52.7542509,14.6168428 C53.1161553,14.6168428 53.4065361,14.5436014 53.6254021,14.3971162 C53.8442681,14.2506312 53.9536994,14.0550334 53.9536994,13.8103171 Z M57.7185202,8.34558824 L57.7185202,9.70013787 L58.7628676,9.70013787 L58.7628676,10.4394531 L57.7185202,10.4394531 L57.7185202,13.9085478 C57.7185202,14.1325839 57.7650501,14.3006084 57.8581112,14.4126264 C57.9511724,14.5246444 58.1097186,14.5806526 58.3337546,14.5806526 C58.4440493,14.5806526 58.5957021,14.5599726 58.7887179,14.5186121 L58.7887179,15.2941176 C58.5371081,15.3630518 58.2923955,15.3975184 58.0545726,15.3975184 C57.6271808,15.3975184 57.3049184,15.2682687 57.0877758,15.0097656 C56.8706331,14.7512625 56.7620634,14.3841935 56.7620634,13.9085478 L56.7620634,10.4394531 L55.7435661,10.4394531 L55.7435661,9.70013787 L56.7620634,9.70013787 L56.7620634,8.34558824 L57.7185202,8.34558824 Z M62.465648,15.3975184 C61.7073721,15.3975184 61.0904206,15.1484974 60.6147748,14.6504481 C60.1391291,14.1523987 59.9013098,13.4863324 59.9013098,12.6522288 L59.9013098,12.4764476 C59.9013098,11.9215275 60.0072945,11.4260707 60.2192671,10.990062 C60.4312395,10.5540534 60.727652,10.2128344 61.1085133,9.96639476 C61.4893746,9.71995511 61.9021118,9.59673713 62.3467372,9.59673713 C63.0739926,9.59673713 63.6392444,9.83627978 64.0425092,10.3153722 C64.4457741,10.7944647 64.6474035,11.4803494 64.6474035,12.3730468 L64.6474035,12.7711398 L60.8577666,12.7711398 C60.8715534,13.3226131 61.0326846,13.7680934 61.3411649,14.1075942 C61.6496454,14.4470949 62.0417026,14.6168428 62.5173484,14.6168428 C62.8551258,14.6168428 63.1411982,14.5479096 63.3755745,14.4100414 C63.6099506,14.2721731 63.8150267,14.0895002 63.9908088,13.8620174 L64.5750229,14.3169807 C64.1062706,15.0373427 63.4031527,15.3975184 62.465648,15.3975184 Z M62.3467372,10.3825827 C61.9607058,10.3825827 61.6367201,10.523034 61.3747702,10.8039407 C61.1128204,11.0848474 60.9508275,11.478628 60.8887867,11.9852941 L63.6909467,11.9852941 L63.6909467,11.9129136 C63.6633731,11.4269277 63.5324001,11.0503805 63.2980239,10.7832606 C63.0636478,10.5161407 62.7465553,10.3825827 62.3467372,10.3825827 Z M66.9232536,9.70013787 L66.9542739,10.4032629 C67.3816658,9.86557635 67.9400241,9.59673713 68.6293658,9.59673713 C69.8115868,9.59673713 70.4078584,10.2636652 70.4181986,11.5975414 L70.4181986,15.2941176 L69.4617418,15.2941176 L69.4617418,11.5923713 C69.4582951,11.1891064 69.3660969,10.8909706 69.1851447,10.697955 C69.0041926,10.5049393 68.7224284,10.4084329 68.3398438,10.4084329 C68.02964,10.4084329 67.7573541,10.4911527 67.5229779,10.6565947 C67.2886018,10.8220367 67.1059289,11.039176 66.974954,11.3080193 L66.974954,15.2941176 L66.0184973,15.2941176 L66.0184973,9.70013787 L66.9232536,9.70013787 Z M74.7579274,12.4454274 C74.7579274,11.8974007 74.8656354,11.4045288 75.0810547,10.9667969 C75.296474,10.5290649 75.5963331,10.1912926 75.9806411,9.95346967 C76.3649491,9.71564679 76.8035361,9.59673713 77.2964154,9.59673713 C78.058138,9.59673713 78.6742279,9.86040638 79.1447035,10.3877528 C79.6151793,10.9150991 79.8504136,11.6164938 79.8504136,12.4919578 L79.8504136,12.5591682 C79.8504136,13.1037481 79.7461522,13.5923118 79.5376264,14.0248736 C79.3291005,14.4574355 79.0309647,14.7943462 78.64321,15.0356158 C78.2554553,15.2768854 77.8099749,15.3975184 77.3067555,15.3975184 C76.5484796,15.3975184 75.9341131,15.1338492 75.4636374,14.6065027 C74.9931618,14.0791564 74.7579274,13.3812084 74.7579274,12.5126379 L74.7579274,12.4454274 Z M75.7195542,12.5591682 C75.7195542,13.1795758 75.8634521,13.6776176 76.1512524,14.0533088 C76.4390525,14.429 76.8242164,14.6168428 77.3067555,14.6168428 C77.7927414,14.6168428 78.1787669,14.4264151 78.4648438,14.0455538 C78.7509206,13.6646925 78.8939568,13.1313224 78.8939568,12.4454274 C78.8939568,11.8319133 78.7483355,11.3347331 78.4570887,10.9538718 C78.1658419,10.5730105 77.7789546,10.3825827 77.2964154,10.3825827 C76.8242164,10.3825827 76.4433608,10.5704255 76.1538373,10.9461167 C75.8643138,11.3218079 75.7195542,11.8594864 75.7195542,12.5591682 Z M82.2193245,9.70013787 L82.2503447,10.4032629 C82.6777365,9.86557635 83.2360949,9.59673713 83.9254366,9.59673713 C85.1076575,9.59673713 85.7039292,10.2636652 85.7142693,11.5975414 L85.7142693,15.2941176 L84.7578125,15.2941176 L84.7578125,11.5923713 C84.7543658,11.1891064 84.6621678,10.8909706 84.4812155,10.697955 C84.3002633,10.5049393 84.0184992,10.4084329 83.6359145,10.4084329 C83.3257108,10.4084329 83.0534249,10.4911527 82.8190487,10.6565947 C82.5846726,10.8220367 82.4019998,11.039176 82.2710248,11.3080193 L82.2710248,15.2941176 L81.314568,15.2941176 L81.314568,9.70013787 L82.2193245,9.70013787 Z" id="Listen-on" fill="#5F6368" fill-rule="nonzero"></path>
        </g>
    </g>
</svg>